<svg xmlns="http://www.w3.org/2000/svg" xmlns:xlink="http://www.w3.org/1999/xlink" version="1.1" width="256" height="256" viewBox="0 0 256 256" xml:space="preserve">

<defs>
</defs>
<g style="stroke: none; stroke-width: 0; stroke-dasharray: none; stroke-linecap: butt; stroke-linejoin: miter; stroke-miterlimit: 10; fill: none; fill-rule: nonzero; opacity: 1;" transform="translate(1.4065934065934016 1.4065934065934016) scale(2.81 2.81)" >
	<path d="M 74.34 64.918 c -4.819 0 -8.74 -3.921 -8.74 -8.74 c 0 -4.82 3.921 -8.741 8.74 -8.741 s 8.74 3.921 8.74 8.741 C 83.08 60.997 79.159 64.918 74.34 64.918 z M 74.34 50.437 c -3.165 0 -5.74 2.575 -5.74 5.741 c 0 3.165 2.575 5.74 5.74 5.74 s 5.74 -2.575 5.74 -5.74 C 80.08 53.012 77.505 50.437 74.34 50.437 z" style="stroke: none; stroke-width: 1; stroke-dasharray: none; stroke-linecap: butt; stroke-linejoin: miter; stroke-miterlimit: 10; fill: rgb(0,0,0); fill-rule: nonzero; opacity: 1;" transform=" matrix(1 0 0 1 0 0) " stroke-linecap="round" />
	<path d="M 21.776 64.918 c -4.82 0 -8.741 -3.921 -8.741 -8.74 c 0 -4.82 3.921 -8.741 8.741 -8.741 c 4.819 0 8.74 3.921 8.74 8.741 C 30.516 60.997 26.595 64.918 21.776 64.918 z M 21.776 50.437 c -3.166 0 -5.741 2.575 -5.741 5.741 c 0 3.165 2.575 5.74 5.741 5.74 c 3.165 0 5.74 -2.575 5.74 -5.74 C 27.516 53.012 24.941 50.437 21.776 50.437 z" style="stroke: none; stroke-width: 1; stroke-dasharray: none; stroke-linecap: butt; stroke-linejoin: miter; stroke-miterlimit: 10; fill: rgb(0,0,0); fill-rule: nonzero; opacity: 1;" transform=" matrix(1 0 0 1 0 0) " stroke-linecap="round" />
	<path d="M 74.34 59.18 c -0.2 0 -0.39 -0.02 -0.59 -0.06 c -0.19 -0.04 -0.38 -0.101 -0.561 -0.17 c -0.18 -0.08 -0.35 -0.17 -0.52 -0.28 c -0.16 -0.11 -0.311 -0.23 -0.45 -0.37 c -0.56 -0.56 -0.88 -1.33 -0.88 -2.12 c 0 -0.2 0.02 -0.399 0.06 -0.59 s 0.091 -0.38 0.17 -0.56 c 0.07 -0.181 0.171 -0.351 0.271 -0.521 c 0.11 -0.16 0.24 -0.32 0.38 -0.45 c 1.12 -1.12 3.12 -1.12 4.24 0 c 0.14 0.13 0.26 0.29 0.37 0.45 c 0.109 0.17 0.2 0.34 0.279 0.521 c 0.08 0.18 0.131 0.369 0.171 0.56 c 0.039 0.19 0.06 0.39 0.06 0.59 c 0 0.79 -0.32 1.561 -0.88 2.12 c -0.141 0.14 -0.29 0.26 -0.46 0.37 c -0.16 0.11 -0.33 0.2 -0.51 0.28 c -0.181 0.069 -0.37 0.13 -0.561 0.17 C 74.729 59.16 74.53 59.18 74.34 59.18 z" style="stroke: none; stroke-width: 1; stroke-dasharray: none; stroke-linecap: butt; stroke-linejoin: miter; stroke-miterlimit: 10; fill: rgb(0,0,0); fill-rule: nonzero; opacity: 1;" transform=" matrix(1 0 0 1 0 0) " stroke-linecap="round" />
	<path d="M 21.78 59.18 c -0.79 0 -1.57 -0.32 -2.13 -0.88 c -0.55 -0.56 -0.87 -1.33 -0.87 -2.12 s 0.32 -1.56 0.87 -2.12 c 0.7 -0.7 1.73 -1.02 2.71 -0.819 c 0.19 0.029 0.38 0.09 0.56 0.17 c 0.18 0.069 0.36 0.159 0.52 0.27 c 0.17 0.11 0.32 0.24 0.46 0.38 c 0.56 0.561 0.88 1.33 0.88 2.12 s -0.32 1.561 -0.88 2.12 c -0.14 0.14 -0.29 0.26 -0.46 0.37 c -0.16 0.11 -0.34 0.2 -0.52 0.28 c -0.18 0.069 -0.37 0.13 -0.56 0.17 S 21.97 59.18 21.78 59.18 z" style="stroke: none; stroke-width: 1; stroke-dasharray: none; stroke-linecap: butt; stroke-linejoin: miter; stroke-miterlimit: 10; fill: rgb(0,0,0); fill-rule: nonzero; opacity: 1;" transform=" matrix(1 0 0 1 0 0) " stroke-linecap="round" />
	<path d="M 89.984 51.22 l -0.403 -5.578 c -0.245 -3.379 -2.857 -6.173 -6.212 -6.643 l -19.155 -2.686 l -7.763 -8.067 c -1.935 -2.01 -4.645 -3.164 -7.435 -3.164 H 36.25 c -2.125 0 -3.853 1.728 -3.853 3.853 v 7.292 H 4.153 C 1.863 36.227 0 38.089 0 40.379 v 11.377 c 0 3.28 2.668 5.948 5.953 5.948 l 5.201 -0.017 c -0.07 -0.495 -0.119 -0.997 -0.119 -1.511 c 0 -5.923 4.818 -10.741 10.741 -10.741 s 10.74 4.818 10.74 10.741 c 0 0.51 -0.048 1.008 -0.117 1.5 h 31.318 c -0.069 -0.492 -0.117 -0.99 -0.117 -1.5 c 0 -5.923 4.818 -10.741 10.74 -10.741 s 10.74 4.818 10.74 10.741 c 0 0.487 -0.044 0.962 -0.107 1.432 c 1.296 -0.224 2.501 -0.861 3.407 -1.834 C 89.521 54.551 90.105 52.89 89.984 51.22 z M 48.925 36.227 c -1.536 0 -2.787 -1.25 -2.787 -2.787 v -5.357 h 2.879 c 1.979 0 3.9 0.818 5.272 2.244 l 5.678 5.9 H 48.925 z" style="stroke: none; stroke-width: 1; stroke-dasharray: none; stroke-linecap: butt; stroke-linejoin: miter; stroke-miterlimit: 10; fill: rgb(0,0,0); fill-rule: nonzero; opacity: 1;" transform=" matrix(1 0 0 1 0 0) " stroke-linecap="round" />
</g>
</svg>